<svg class="saving-content__icon" xmlns="http://www.w3.org/2000/svg" height="300" width="80" fill="#03a9f4" xmlns:xlink="http://www.w3.org/1999/xlink" version="1.1" id="Capa_1" x="0px" y="0px" viewBox="175.4949951171875 0 124.11599731445312 475.10498046875" style="enable-background:new 0 0 475.105 475.105;" xml:space="preserve"><path d="M290.338,186.54c5.893-4.329,9.272-10.831,9.272-17.838v-64.457c0-24.258-14.271-46.432-36.358-56.491 c-1.321-0.602-2.174-1.942-2.174-3.416v-6.269h3.589V9.959C264.668,4.468,260.2,0,254.708,0h-34.306 c-5.492,0-9.959,4.468-9.959,9.959v28.109h3.591v6.269c0,1.474-0.854,2.814-2.174,3.416 c-22.091,10.061-36.365,32.235-36.365,56.492v64.457c0,7.011,3.383,13.513,9.278,17.838c2.446,1.797,3.849,4.565,3.849,7.595 c0,3.033-1.405,5.802-3.855,7.599c-5.806,4.259-9.272,10.926-9.272,17.832v202.027c0,3.579,0.186,7.17,0.553,10.667 c0.351,3.423,0.873,6.853,1.554,10.193l3.802,18.647c0.833,3.947,3.022,7.521,6.158,10.061c3.133,2.543,7.081,3.944,11.118,3.944 c3.81,0,7.449-1.202,10.523-3.477c0.551-0.408,1.076-0.852,1.577-1.324c0.314,0.295,0.638,0.582,0.976,0.856 c3.132,2.543,7.081,3.944,11.118,3.944c3.735,0,7.299-1.161,10.323-3.344c2.991,2.155,6.609,3.344,10.31,3.344 c3.815,0,7.454-1.204,10.518-3.477c1.3-0.962,2.435-2.087,3.409-3.332c0.819,1.051,1.747,2.019,2.791,2.865 c3.132,2.543,7.081,3.944,11.118,3.944c3.811,0,7.45-1.202,10.529-3.48c3.026-2.245,5.215-5.329,6.337-8.924l7.577-20.087 c2.538-6.732,3.825-13.805,3.825-21.021V219.566c0-7-3.378-13.5-9.272-17.838c-2.446-1.797-3.848-4.565-3.848-7.595 S287.893,188.336,290.338,186.54z M218.443,9.959c0-1.08,0.879-1.959,1.959-1.959h34.306c1.081,0,1.959,0.879,1.959,1.959v20.109 h-38.224V9.959z M215.176,55.034c4.166-1.897,6.858-6.096,6.858-10.696v-6.269h31.044v6.269c0,4.6,2.692,8.799,6.858,10.696 c4.86,2.214,9.285,5.103,13.186,8.522h-71.134C205.89,60.137,210.315,57.248,215.176,55.034z M204.447,465.197 c-1.688,1.249-3.681,1.908-5.766,1.908c-2.207,0-4.364-0.765-6.08-2.158c-1.718-1.391-2.915-3.344-3.364-5.472l-3.797-18.619 c-0.237-1.164-0.446-2.342-0.641-3.526c10.464,3.762,18.464,12.762,20.798,23.765c0.166,0.791,0.386,1.568,0.658,2.326 C205.729,464.088,205.126,464.694,204.447,465.197z M249.263,465.2c-1.68,1.246-3.67,1.905-5.755,1.905 c-1.776,0-3.517-0.503-5.019-1.419c0.521-0.99,0.962-2.029,1.294-3.121l1.872-6.18c1.095-3.614,2.815-6.971,5.031-9.944 c3.045,3.452,5.31,7.472,6.657,11.886l-0.583,1.916C252.152,462.243,250.944,463.956,249.263,465.2z M285.601,180.093 c-4.453,3.272-7.111,8.521-7.111,14.041c0,5.521,2.658,10.77,7.108,14.04c3.82,2.812,6.012,6.964,6.012,11.393v202.027 c0,6.249-1.114,12.372-3.311,18.198l-7.62,20.202l-0.084,0.25c-0.607,2-1.814,3.714-3.486,4.954 c-1.688,1.249-3.682,1.908-5.767,1.908c-2.206,0-4.364-0.765-6.079-2.158c-1.718-1.391-2.915-3.344-3.371-5.503 c-1.505-7.093-4.813-13.514-9.639-18.804c2.775-2.26,5.923-4.079,9.347-5.323c2.077-0.754,3.148-3.049,2.394-5.125 c-0.755-2.076-3.049-3.149-5.125-2.394c-11.902,4.324-21.201,14.145-24.873,26.269l-1.871,6.177c-0.607,2-1.815,3.713-3.497,4.958 c-1.68,1.246-3.67,1.905-5.755,1.905c-2.207,0-4.364-0.765-6.077-2.156c-1.016-0.824-1.87-1.865-2.471-3.012l-0.153-0.29 c-0.337-0.699-0.589-1.437-0.75-2.204c-3.184-15.012-14.806-27.042-29.665-30.792c-0.171-2.338-0.262-4.701-0.262-7.061V219.566 c0-4.435,2.188-8.583,6.004-11.383c4.46-3.271,7.123-8.524,7.123-14.05c0-5.52-2.659-10.769-7.114-14.043 c-3.822-2.802-6.013-6.954-6.013-11.389v-64.457c0-12.02,4.029-23.451,11.042-32.688h86.034 c7.011,9.238,11.039,20.668,11.039,32.688v64.457C291.611,173.135,289.421,177.287,285.601,180.093z"></path><path d="M276.048,84.447c-2.06,0.799-3.082,3.116-2.282,5.176c2.172,5.6,3.274,11.513,3.274,17.577v44.45c0,2.209,1.791,4,4,4 c2.209,0,4-1.791,4-4V107.2c0-7.058-1.284-13.945-3.816-20.471C280.426,84.67,278.111,83.647,276.048,84.447z"></path><path d="M275.495,228.729v178.828c0,2.209,1.791,4,4,4c2.209,0,4-1.791,4-4V228.729c0-2.209-1.791-4-4-4 C277.286,224.729,275.495,226.52,275.495,228.729z"></path></svg>