<svg class="saving-content__icon" width="300" fill="none" stroke-width="4" stroke="#03a9f4" xmlns="http://www.w3.org/2000/svg" x="0px" y="0px" xml:space="preserve" viewBox="600.0297241210938 110.52616119384766 281.85113525390625 296.7965087890625"><path d="m 658.36926,116.04151 164.65673,-0.51535 c 16.46129,5.49825 9.80362,29.06941 -0.25768,27.05627 H 658.62694 c -9.78808,2.33971 -15.44832,-24.30658 -0.25768,-26.54092 z"></path><path d="m 688.44221,138.77708 c 2.47611,-6.7229 10.01197,-5.98108 11.92869,0.45552 0.68653,7.79165 0.29996,14.58486 -0.27332,20.56742 -0.95677,6.86241 -10.59727,7.4302 -11.92868,-0.40862 -0.67428,-6.96711 -0.97842,-13.88796 0.27331,-20.61432 z"></path><path d="m 793.97271,139.49028 c 0.97922,-9.81421 13.56386,-6.84682 12.433,0.12882 0.0198,6.21439 0.52485,13.45897 -0.0644,20.6143 -0.37968,4.75426 -9.18318,9.3186 -12.30416,-0.32212 -0.73014,-6.97879 -0.10736,-13.50663 -0.0644,-20.421 z"></path><path d="m 649.86586,154.43565 180.11746,-0.25768 c 9.17935,0.36537 9.99612,7.82794 10.82251,10.04947 l 0,12.36859 -199.70105,0.25767 0.25768,-13.91465 c 0.31009,-5.92592 4.08119,-7.81937 8.5034,-8.5034 z"></path><path d="m 611.47172,177.11138 h 257.67877 c 2.90285,0.0201 6.76442,2.2443 6.95733,6.18429 l 0.77304,26.28324 -271.59343,0.25768 -0.25768,-25.76788 c 0.26965,-2.98589 1.44862,-5.95441 6.44197,-6.95733 z"></path><path d="m 613.48897,209.81566 0.36441,36.44129 c 1.1308,4.38438 4.219,6.43473 8.83701,7.65266 l 62.95232,-0.0911 c 3.59933,-0.76189 7.38191,-3.39802 8.29039,-8.3815 l -0.63773,-35.62135 z"></path><path d="m 622.69039,253.90961 6.43233,137.46167 c 2.23322,5.23947 4.93884,8.11688 8.88992,8.88992 l 31.17913,0.51536 c 3.09214,-0.91797 5.54009,-2.61709 8.63223,-9.66296 l 7.81871,-137.29509 z"></path><path d="m 633.71388,253.81851 0.36441,33.52597 z"></path><path d="m 639.54448,253.08968 v 33.89039 z"></path><path d="m 667.96868,253.81851 -0.36441,33.16156 z"></path><path d="m 673.07046,252.72527 -0.72882,35.34804 z"></path><path d="m 699.12598,209.90676 c -0.10944,12.25038 -0.80323,24.64684 0.91104,36.44129 2.95594,6.96222 6.22972,7.28825 9.65693,7.65266 l 59.5815,-0.36441 c 6.28923,0.24667 8.18538,-4.1224 9.65693,-9.65694 0.71695,-11.35753 0.18729,-22.71507 1e-5,-34.0726 z"></path><path d="m 709.69395,254.00071 c 1.61583,45.74754 2.08959,90.27928 5.2358,137.37057 1.73765,5.75771 4.75592,8.52862 8.88992,10.17831 10.04947,1.06086 20.09894,1.0002 30.14841,0 4.5264,-1.38232 7.50308,-5.10878 8.63224,-9.92063 3.7826,-37.7066 4.73043,-91.65406 6.82849,-137.7293 z"></path><path d="m 720.26192,254.00071 0.18221,33.34377"></path><path d="m 725.54591,254.54733 -0.54662,32.43274"></path><path d="m 753.05908,253.6363 -0.18221,33.70818"></path><path d="m 758.34306,254.36512 -0.18221,33.16157"></path><path d="m 784.63186,209.96543 c 0.12356,12.02325 -1.73685,23.38517 0.38651,36.07502 1.23738,5.18206 4.3463,7.74395 9.01876,8.11689 l 61.71407,-0.38652 c 4.53842,0.0452 7.44341,-2.45054 8.88991,-7.21501 2.31889,-11.83609 0.17179,-24.56537 0.25768,-36.84806 z"></path><path d="m 794.03713,254.15734 5.03554,139.23127 c 1.45459,6.03843 3.31127,6.3586 7.19068,7.65267 l 38.39218,-0.28894 c 5.14846,-1.77268 6.0285,-4.93993 6.795,-7.36373 l 3.64413,-139.3879 z"></path><path d="m 807.82295,253.12662 -0.51536,34.40012"></path><path d="m 812.07464,253.89966 -0.25767,32.85404"></path><path d="m 840.80583,254.28618 -0.38652,31.43681"></path><path d="m 844.79985,285.33647 0.12884,-30.79262"></path></svg>